<svg xmlns="http://www.w3.org/2000/svg" xmlns:xlink="http://www.w3.org/1999/xlink" version="1.1" x="0px" y="0px" viewBox="0 0 128 160" style="enable-background:new 0 0 128 128;" xml:space="preserve"><g><path style="" d="M120,0H8C3.5995851,0,0,3.5996001,0,8v112c0,4.4003983,3.5995851,8,8,8h112   c4.400383,0,8-3.5996017,8-8V8C128,3.5996001,124.400383,0,120,0z M8,4h112c2.2060852,0,4,1.7939,4,4v4H4V8   C4,5.7939,5.7938848,4,8,4z M120,124H8c-2.2061152,0-4-1.7938995-4-4V16h120v104C124,122.2061005,122.2060852,124,120,124z" fill-rule="evenodd" clip-rule="evenodd"/><circle style="" cx="116.0031967" cy="8" r="2" fill-rule="evenodd" clip-rule="evenodd"/><circle style="" cx="108.0031967" cy="8" r="2" fill-rule="evenodd" clip-rule="evenodd"/><path style="" d="M103.9315796,84.0712967l-7.8983994-4.1591949   c-0.9794998-0.5156021-2.1865005-0.1396027-2.7011795,0.8378983c-0.5146179,0.9775009-0.1396179,2.1865005,0.837883,2.7012024   l4.5381165,2.389595l-4.5381165,2.3897018c-0.9775009,0.5146027-1.3525009,1.7236023-0.837883,2.7011032   C93.6903839,91.6122971,94.3847809,92,95.1034851,92c0.3135147,0,0.6327972-0.0742035,0.9296951-0.2304993l7.8983994-4.1591034   C104.5888824,87.2646027,105,86.5830002,105,85.8407974C105,85.0986023,104.5888824,84.4169998,103.9315796,84.0712967z" fill-rule="evenodd" clip-rule="evenodd"/><path style="" d="M103,58.875h-1.5c-1.1045151,0-2,0.8955002-2,2s0.8954849,2,2,2h1.5   c1.1044846,0,2-0.8955002,2-2S104.1044846,58.875,103,58.875z" fill-rule="evenodd" clip-rule="evenodd"/><path style="" d="M77.4970856,60.875c0,1.1044998,0.8955002,2,2,2h3   c1.1044998,0,2-0.8955002,2-2s-0.8955002-2-2-2h-3C78.3925858,58.875,77.4970856,59.7705002,77.4970856,60.875z" fill-rule="evenodd" clip-rule="evenodd"/><path style="" d="M57.4931831,62.875h3c1.1044998,0,2-0.8955002,2-2s-0.8955002-2-2-2h-3   c-1.1044998,0-2,0.8955002-2,2S56.3886833,62.875,57.4931831,62.875z" fill-rule="evenodd" clip-rule="evenodd"/><path style="" d="M46.4911842,62.875h3c1.1044998,0,2-0.8955002,2-2s-0.8955002-2-2-2h-3   c-1.1044998,0-2,0.8955002-2,2S45.3866844,62.875,46.4911842,62.875z" fill-rule="evenodd" clip-rule="evenodd"/><path style="" d="M33.4892845,60.875c0,1.1044998,0.8955002,2,2,2h3   c1.1044998,0,2-0.8955002,2-2s-0.8955002-2-2-2h-3C34.3847847,58.875,33.4892845,59.7705002,33.4892845,60.875z" fill-rule="evenodd" clip-rule="evenodd"/><path style="" d="M90.4980011,62.875h3.0009995c1.1044846,0,2-0.8955002,2-2s-0.8955154-2-2-2   h-3.0009995c-1.1044159,0-2,0.8955002-2,2S89.3935852,62.875,90.4980011,62.875z" fill-rule="evenodd" clip-rule="evenodd"/><path style="" d="M68.4950867,62.875h3c1.1044998,0,2-0.8955002,2-2s-0.8955002-2-2-2h-3   c-1.1044998,0-2,0.8955002-2,2S67.3905869,62.875,68.4950867,62.875z" fill-rule="evenodd" clip-rule="evenodd"/><path style="" d="M25.9872837,62.875h1.5c1.1044998,0,2-0.8955002,2-2s-0.8955002-2-2-2h-1.5   c-1.1044998,0-2,0.8955002-2,2S24.8827839,62.875,25.9872837,62.875z" fill-rule="evenodd" clip-rule="evenodd"/><path style="" d="M103,71.3506012h-1.5c-1.1045151,0-2,0.8955002-2,2s0.8954849,2,2,2h1.5   c1.1044846,0,2-0.8955002,2-2S104.1044846,71.3506012,103,71.3506012z" fill-rule="evenodd" clip-rule="evenodd"/><path style="" d="M38.4892845,75.3506012c1.1044998,0,2-0.8955002,2-2s-0.8955002-2-2-2h-3   c-1.1044998,0-2,0.8955002-2,2s0.8955002,2,2,2H38.4892845z" fill-rule="evenodd" clip-rule="evenodd"/><path style="" d="M84.4970856,73.3506012c0-1.1044998-0.8955002-2-2-2h-3   c-1.1044998,0-2,0.8955002-2,2s0.8955002,2,2,2h3C83.6015854,75.3506012,84.4970856,74.455101,84.4970856,73.3506012z" fill-rule="evenodd" clip-rule="evenodd"/><path style="" d="M62.4931831,73.3506012c0-1.1044998-0.8955002-2-2-2h-3   c-1.1044998,0-2,0.8955002-2,2s0.8955002,2,2,2h3C61.597683,75.3506012,62.4931831,74.455101,62.4931831,73.3506012z" fill-rule="evenodd" clip-rule="evenodd"/><path style="" d="M95.4990005,73.3506012c0-1.1044998-0.8955154-2-2-2h-3.0009995   c-1.1044159,0-2,0.8955002-2,2s0.8955841,2,2,2h3.0009995C94.6034851,75.3506012,95.4990005,74.455101,95.4990005,73.3506012z" fill-rule="evenodd" clip-rule="evenodd"/><path style="" d="M73.4950867,73.3506012c0-1.1044998-0.8955002-2-2-2h-3   c-1.1044998,0-2,0.8955002-2,2s0.8955002,2,2,2h3C72.5995865,75.3506012,73.4950867,74.455101,73.4950867,73.3506012z" fill-rule="evenodd" clip-rule="evenodd"/><path style="" d="M51.4911842,73.3506012c0-1.1044998-0.8955002-2-2-2h-3   c-1.1044998,0-2,0.8955002-2,2s0.8955002,2,2,2h3C50.5956841,75.3506012,51.4911842,74.455101,51.4911842,73.3506012z" fill-rule="evenodd" clip-rule="evenodd"/><path style="" d="M27.4872837,75.3506012c1.1044998,0,2-0.8955002,2-2s-0.8955002-2-2-2h-1.5   c-1.1044998,0-2,0.8955002-2,2s0.8955002,2,2,2H27.4872837z" fill-rule="evenodd" clip-rule="evenodd"/><path style="" d="M86.2147827,83.8281021h-1.5c-1.1044006,0-2,0.8955002-2,2s0.8955994,2,2,2   h1.5c1.1044998,0,2-0.8955002,2-2S87.3192825,83.8281021,86.2147827,83.8281021z" fill-rule="evenodd" clip-rule="evenodd"/><path style="" d="M76.0624847,83.8281021h-3.2441025c-1.1044998,0-2,0.8955002-2,2   s0.8955002,2,2,2h3.2441025c1.1045151,0,2-0.8955002,2-2S77.1669998,83.8281021,76.0624847,83.8281021z" fill-rule="evenodd" clip-rule="evenodd"/><path style="" d="M64.1660004,83.8281021h-3.2451172c-1.1044998,0-2,0.8955002-2,2   s0.8955002,2,2,2h3.2451172c1.1044846,0,2-0.8955002,2-2S65.2704849,83.8281021,64.1660004,83.8281021z" fill-rule="evenodd" clip-rule="evenodd"/><path style="" d="M52.2685852,83.8281021h-3.2452011c-1.1044998,0-2,0.8955002-2,2   s0.8955002,2,2,2h3.2452011c1.1044159,0,2-0.8955002,2-2S53.3730011,83.8281021,52.2685852,83.8281021z" fill-rule="evenodd" clip-rule="evenodd"/><path style="" d="M40.3710823,83.8281021h-3.2440834c-1.1045151,0-2,0.8955002-2,2   s0.8954849,2,2,2h3.2440834c1.1044998,0,2-0.8955002,2-2S41.4755821,83.8281021,40.3710823,83.8281021z" fill-rule="evenodd" clip-rule="evenodd"/><path style="" d="M28.4745846,83.8281021h-1.5c-1.1044998,0-2,0.8955002-2,2s0.8955002,2,2,2   h1.5c1.1044998,0,2-0.8955002,2-2S29.5790844,83.8281021,28.4745846,83.8281021z" fill-rule="evenodd" clip-rule="evenodd"/><path style="" d="M34.775383,49.3075981c0.5098-0.9804993,0.127903-2.1875-0.8516006-2.697197   l-4.5878983-2.3848l4.5878983-2.3848c0.9795036-0.5097008,1.3614006-1.7168007,0.8516006-2.6972008   c-0.5098-0.9794998-1.7167969-1.3623009-2.6973-0.8516006l-8.0009995,4.1591988C23.4150009,42.794899,23,43.4794998,23,44.2256012   C23,44.9716988,23.4150009,45.6562996,24.0770836,46l8.0009995,4.1591988   C32.3730011,50.3125,32.6884842,50.3848,32.9990005,50.3848C33.7216835,50.3848,34.4188843,49.9921989,34.775383,49.3075981z" fill-rule="evenodd" clip-rule="evenodd"/><path style="" d="M92.2372818,49.3075981   c0.3564987,0.6846008,1.0537186,1.0772018,1.7763977,1.0772018c0.3105011,0,0.6259003-0.0723,0.9209061-0.2256012L102.9354858,46   c0.6621933-0.3437004,1.0771942-1.0283012,1.0771942-1.7743988c0-0.7461014-0.4150009-1.4307022-1.0771942-1.7744026   l-8.0009003-4.1591988c-0.9825058-0.5107002-2.1875-0.1278992-2.6973038,0.8516006   c-0.5097961,0.9804001-0.1278992,2.1875,0.8516006,2.6972008l4.5878983,2.3848l-4.5878983,2.3848   C92.1093826,47.1200981,91.7274857,48.3270988,92.2372818,49.3075981z" fill-rule="evenodd" clip-rule="evenodd"/><path style="" d="M50.5175819,46.2383003h1.5c1.1045036,0,2-0.8955002,2-2s-0.8954964-2-2-2   h-1.5c-1.1044998,0-2,0.8955002-2,2S49.4130821,46.2383003,50.5175819,46.2383003z" fill-rule="evenodd" clip-rule="evenodd"/><path style="" d="M64.2987823,42.2383003h-3.3495979c-1.1044998,0-2,0.8955002-2,2   s0.8955002,2,2,2h3.3495979c1.1044998,0,2-0.8955002,2-2S65.4032822,42.2383003,64.2987823,42.2383003z" fill-rule="evenodd" clip-rule="evenodd"/><path style="" d="M73.230484,46.2383003h3.3486023c1.1044998,0,2-0.8955002,2-2   s-0.8955002-2-2-2H73.230484c-1.1044846,0-2,0.8955002-2,2S72.1259995,46.2383003,73.230484,46.2383003z" fill-rule="evenodd" clip-rule="evenodd"/><path style="" d="M87.0106812,42.2383003h-1.5c-1.1044006,0-2,0.8955002-2,2s0.8955994,2,2,2   h1.5c1.1044998,0,2-0.8955002,2-2S88.115181,42.2383003,87.0106812,42.2383003z" fill-rule="evenodd" clip-rule="evenodd"/><path style="" d="M41.4862823,47.5820007   c-0.794899,0.0195999-1.3817978,0.5937996-1.4257965,1.3564987c-0.0488014,0.8993988,0.6495132,1.544899,1.4628983,1.5381012   c0.7461014,0.0097008,1.4208984-0.5987015,1.4482994-1.3897018C43.0028839,48.2383003,42.3437843,47.5605011,41.4862823,47.5820007   z" fill-rule="evenodd" clip-rule="evenodd"/><path style="" d="M41.4706841,38.0009995   c-1.0713005,0.0243988-1.8642998,0.6748009-1.955101,1.5498009c0,0,0.6581993,5.7294998,0.7637024,6.5780983   c0.0214996,0.1738014,0.0360985,0.1865005,0.2607155,0.1865005c0.6376839,0.0020027,1.275383,0.0020027,1.9130821,0   c0.2237015,0,0.2373009-0.0107002,0.2578011-0.1884003c0.0839996-0.6601982,0.1699982-1.3232994,0.2538986-1.9864006   c0.1259995-0.9911995,0.2588005-1.9842987,0.3799019-2.9764977c0.0546989-0.4570999,0.1748009-0.9190025,0.1708984-1.3819008   c0-0.0770988-0.0038986-0.1533012-0.0116997-0.2313995C43.4052849,38.6571999,42.5595856,37.9785004,41.4706841,38.0009995z" fill-rule="evenodd" clip-rule="evenodd"/></g><text x="0" y="143" fill="#000000" font-size="5px" font-weight="bold" font-family="'Helvetica Neue', Helvetica, Arial-Unicode, Arial, Sans-serif">Created by priyanka</text><text x="0" y="148" fill="#000000" font-size="5px" font-weight="bold" font-family="'Helvetica Neue', Helvetica, Arial-Unicode, Arial, Sans-serif">from the Noun Project</text></svg>