<svg xmlns="http://www.w3.org/2000/svg" data-name="Layer 1" viewBox="0 0 100 125" x="0px" y="0px"><title>A_47</title><path d="M80.94727,56.57129a2.50024,2.50024,0,0,1-1.16407,2.11328l-14.37695,9.084A2.49961,2.49961,0,1,1,62.73633,63.542l11.03125-6.9707L62.73535,49.6001a2.50014,2.50014,0,0,1,2.67188-4.22656L79.7832,54.458A2.50024,2.50024,0,0,1,80.94727,56.57129ZM38.043,46.15137a2.49923,2.49923,0,0,0-3.44922-.77783L20.21777,54.458a2.49973,2.49973,0,0,0,.001,4.22656l14.375,9.084A2.50014,2.50014,0,0,0,37.26563,63.542L26.2334,56.57129,37.26563,49.6001A2.50007,2.50007,0,0,0,38.043,46.15137Zm15.61621-4.498a2.5003,2.5003,0,0,0-3.02344,1.83252l-6.127,24.979a2.49975,2.49975,0,1,0,4.85547,1.19141l6.127-24.979A2.5,2.5,0,0,0,53.65918,41.65332ZM95.00012,11.45587V88.54413a2.36332,2.36332,0,0,1-2.36328,2.36328H7.36334a2.36327,2.36327,0,0,1-2.36322-2.36328V11.45587A2.36327,2.36327,0,0,1,7.36334,9.09259h85.2735A2.36332,2.36332,0,0,1,95.00012,11.45587ZM50.2168,22.23486a4.48046,4.48046,0,0,0-.05725-8.14227H46.4364a4.48045,4.48045,0,0,0-.05725,8.14227Zm-15,0a4.48046,4.48046,0,0,0-.05725-8.14227H31.4364a4.48045,4.48045,0,0,0-.05725,8.14227Zm-15,0a4.48046,4.48046,0,0,0-.05725-8.14227H16.4364a4.48045,4.48045,0,0,0-.05725,8.14227ZM90.00012,85.90741V27.23486h-80V85.90741Z"/><text x="0" y="115" fill="#000000" font-size="5px" font-weight="bold" font-family="'Helvetica Neue', Helvetica, Arial-Unicode, Arial, Sans-serif">Created by Hrbon</text><text x="0" y="120" fill="#000000" font-size="5px" font-weight="bold" font-family="'Helvetica Neue', Helvetica, Arial-Unicode, Arial, Sans-serif">from the Noun Project</text></svg>