<svg xmlns="http://www.w3.org/2000/svg" viewBox="0 0 100 125" x="0px" y="0px"><title>browser-set</title><path d="M13.3,14.78a3.44,3.44,0,1,0,3.44,3.44A3.45,3.45,0,0,0,13.3,14.78Zm0,4.89a1.44,1.44,0,1,1,1.44-1.44A1.45,1.45,0,0,1,13.3,19.67Zm16.62-4.89a3.44,3.44,0,1,0,3.44,3.44A3.45,3.45,0,0,0,29.93,14.78Zm0,4.89a1.44,1.44,0,1,1,1.44-1.44A1.45,1.45,0,0,1,29.93,19.67Zm-8.31-4.89a3.44,3.44,0,1,0,3.44,3.44A3.45,3.45,0,0,0,21.62,14.78Zm0,4.89a1.44,1.44,0,1,1,1.44-1.44A1.45,1.45,0,0,1,21.62,19.67ZM94,9.89H6a1,1,0,0,0-1,1V89.11a1,1,0,0,0,1,1H94a1,1,0,0,0,1-1V10.89A1,1,0,0,0,94,9.89Zm-87,2H93V24.56H7V11.89ZM7,88.11V26.56H93V88.11H7ZM40.85,75.22A1,1,0,0,1,40,73.74L58.78,40a1,1,0,1,1,1.75,1L41.73,74.71A1,1,0,0,1,40.85,75.22Zm25-2a1,1,0,0,1-.71-1.71L79.45,57.16,65.14,42.84a1,1,0,0,1,1.41-1.41l15,15a1,1,0,0,1,.29.71,1.2,1.2,0,0,1-.29.79l-15,15A1,1,0,0,1,65.84,73.19Zm-31.69,0a1,1,0,0,1-.71-0.29l-15-15a1,1,0,0,1-.29-0.71,1.2,1.2,0,0,1,.29-0.79l15-15a1,1,0,0,1,1.41,1.41L20.55,57.16,34.86,71.48A1,1,0,0,1,34.16,73.19Z"/></svg>