<svg xmlns="http://www.w3.org/2000/svg" xmlns:xlink="http://www.w3.org/1999/xlink" version="1.1" x="0px" y="0px" viewBox="0 0 33 41.25" enable-background="new 0 0 33 33" xml:space="preserve"><polygon points="10.686,15.951 9.164,14.429 10.859,12.733 10.183,12.056 8.487,13.751 6.643,11.908 9.276,9.276 8.599,8.599   5.966,11.23 4.122,9.387 5.817,7.691 5.14,7.014 3.445,8.709 1.854,7.119 7.119,1.854 15.949,10.684 16.626,10.007 7.119,0.5   0.5,7.119 10.009,16.627 "/><polygon points="22.991,16.372 22.313,17.049 31.146,25.881 25.881,31.146 24.291,29.555 25.986,27.86 25.309,27.183 23.613,28.878   21.77,27.034 24.401,24.401 23.724,23.724 21.092,26.357 19.249,24.513 20.944,22.817 20.267,22.141 18.572,23.836 17.051,22.316   16.374,22.993 25.881,32.5 32.5,25.881 "/><path d="M30.771,6.367c0.664-0.664,0.663-1.744,0-2.407l-1.73-1.73c-0.644-0.644-1.764-0.643-2.407,0L4.732,24.13  c-0.042,0.042-0.063,0.097-0.087,0.15l-0.012-0.005l-2.729,6.19c-0.08,0.181-0.04,0.392,0.1,0.532  c0.092,0.092,0.214,0.14,0.338,0.14c0.065,0,0.131-0.013,0.193-0.041l6.19-2.729l-0.001-0.002c0.053-0.023,0.104-0.055,0.146-0.098  L30.771,6.367z M27.31,2.906c0.282-0.279,0.771-0.281,1.053,0l1.731,1.731c0.29,0.29,0.29,0.763,0,1.053l-1.608,1.608l-2.784-2.784  L27.31,2.906z M6.744,28.194l-1.938-1.938l0.536-1.214l2.044,0.573l0.573,2.044L6.744,28.194z M4.392,27.196l1.413,1.413  l-2.527,1.114L4.392,27.196z M8.235,25.097c-0.045-0.161-0.171-0.287-0.332-0.332l-1.916-0.537L25.025,5.191l2.784,2.785  L8.772,27.012L8.235,25.097z"/><rect x="6.061" y="15.256" transform="matrix(0.7071 -0.7071 0.7071 0.7071 -6.0699 16.8167)" width="22.407" height="0.958"/><text x="0" y="48" fill="#000000" font-size="5px" font-weight="bold" font-family="'Helvetica Neue', Helvetica, Arial-Unicode, Arial, Sans-serif">Created by Icon Solutions</text><text x="0" y="53" fill="#000000" font-size="5px" font-weight="bold" font-family="'Helvetica Neue', Helvetica, Arial-Unicode, Arial, Sans-serif">from the Noun Project</text></svg>