<svg xmlns="http://www.w3.org/2000/svg" viewBox="0 0 64 80" x="0px" y="0px"><title>004_Startup_Icon_64x64</title><g><rect x="10" y="6" width="2" height="2"/><rect x="14" y="6" width="2" height="2"/><rect x="6" y="6" width="2" height="2"/><path d="M58,2H6A4,4,0,0,0,2,6V58a4,4,0,0,0,4,4H58a4,4,0,0,0,4-4V6A4,4,0,0,0,58,2ZM6,4H58a2,2,0,0,1,2,2v4H4V6A2,2,0,0,1,6,4ZM58,60H6a2,2,0,0,1-2-2V12H60V58A2,2,0,0,1,58,60Z"/><path d="M52,32H48.517a16.777,16.777,0,0,0-2.006-4.855l2.46-2.459a1,1,0,0,0,0-1.414l-4.243-4.243a1.029,1.029,0,0,0-1.414,0l-2.459,2.46A16.777,16.777,0,0,0,36,19.483V16a1,1,0,0,0-1-1H29a1,1,0,0,0-1,1v3.483a16.777,16.777,0,0,0-4.855,2.006l-2.459-2.46a1,1,0,0,0-1.414,0l-4.243,4.243a1,1,0,0,0,0,1.414l2.46,2.459A16.777,16.777,0,0,0,15.483,32H12a1,1,0,0,0-1,1v6a1,1,0,0,0,1,1h3.483a16.777,16.777,0,0,0,2.006,4.855l-2.46,2.459a1,1,0,0,0,0,1.414l4.243,4.243a1.029,1.029,0,0,0,1.414,0l2.459-2.46A16.777,16.777,0,0,0,28,52.517V56a1,1,0,0,0,1,1h6a1,1,0,0,0,1-1V52.517a16.777,16.777,0,0,0,4.855-2.006l2.459,2.46a1,1,0,0,0,1.414,0l4.243-4.243a1,1,0,0,0,0-1.414l-2.46-2.459A16.777,16.777,0,0,0,48.517,40H52a1,1,0,0,0,1-1V33A1,1,0,0,0,52,32Zm-1,6H47.709a1,1,0,0,0-.982.813,14.848,14.848,0,0,1-2.32,5.616,1,1,0,0,0,.119,1.269l2.324,2.323L44.021,50.85,41.7,48.526a1,1,0,0,0-1.269-.119,14.848,14.848,0,0,1-5.616,2.32,1,1,0,0,0-.813.982V55H30V51.709a1,1,0,0,0-.813-.982,14.848,14.848,0,0,1-5.616-2.32,1,1,0,0,0-1.269.119L19.979,50.85,17.15,48.021,19.474,45.7a1,1,0,0,0,.119-1.269,14.848,14.848,0,0,1-2.32-5.616A1,1,0,0,0,16.291,38H13V34h3.291a1,1,0,0,0,.982-.813,14.848,14.848,0,0,1,2.32-5.616,1,1,0,0,0-.119-1.269L17.15,23.979l2.829-2.829L22.3,23.474a1,1,0,0,0,1.269.119,14.848,14.848,0,0,1,5.616-2.32A1,1,0,0,0,30,20.291V17h4v3.291a1,1,0,0,0,.813.982,14.848,14.848,0,0,1,5.616,2.32,1,1,0,0,0,1.269-.119l2.323-2.324,2.829,2.829L44.526,26.3a1,1,0,0,0-.119,1.269,14.848,14.848,0,0,1,2.32,5.616,1,1,0,0,0,.982.813H51Z"/><path d="M32,23A13,13,0,1,0,45,36,13.015,13.015,0,0,0,32,23Zm0,24A11,11,0,1,1,43,36,11.013,11.013,0,0,1,32,47Z"/><path d="M27.4,32.2l-4,3a1,1,0,0,0,0,1.6l4,3,1.2-1.6L25.667,36,28.6,33.8Z"/><path d="M35.4,33.8,38.333,36,35.4,38.2l1.2,1.6,4-3a1,1,0,0,0,0-1.6l-4-3Z"/><rect x="26.615" y="35" width="10.77" height="2.001" transform="translate(-13.311 52.337) rotate(-68.193)"/></g></svg>